# xmcd CD database file
#
# Track frame offsets:
#	150
#	12700
#	33805
#	64329
#	100390
#	112217
#	135479
#	163791
#	188068
#	204124
#	224963
#	245363
#	267093
#	295173
#
# Disc length: 4465 seconds
#
# Revision: 0
# Processed by: cddbd v1.5.2PL0 Copyright (c) Steve Scherf et al.
# Submitted via: CDex 1.60beta1
#
DISCID=d6116f0e
DTITLE=溝口肇 - オーガニック・スタイル
DYEAR=2007
DGENRE=New Age
TTITLE0=エスパス
TTITLE1=PLANT AQUARIUM
TTITLE2=うたかた
TTITLE3=珊瑚と薄荷とエアメール
TTITLE4=7TH BLUE
TTITLE5=4人のテーブルソング
TTITLE6=シエナへの道
TTITLE7=神様のチェス
TTITLE8=世界の車窓から (Orchestra Ver.)
TTITLE9=Offset Of Love
TTITLE10=ウォーター・ダンス
TTITLE11=キリンと月
TTITLE12=国境の朝
TTITLE13=帰ろうよ
EXTD=YEAR: 2007
EXTT0=
EXTT1=
EXTT2=
EXTT3=
EXTT4=
EXTT5=
EXTT6=
EXTT7=
EXTT8=
EXTT9=
EXTT10=
EXTT11=
EXTT12=
EXTT13=
PLAYORDER=
